<svg width="34" height="34" viewBox="0 0 34 34" fill="none" xmlns="http://www.w3.org/2000/svg">
<path d="M27.2993 7.55122C25.4151 6.67289 23.3751 6.03539 21.2501 5.66706C21.2315 5.66646 21.2129 5.66996 21.1958 5.6773C21.1787 5.68464 21.1633 5.69566 21.1509 5.70956C20.8959 6.17706 20.5984 6.78622 20.4001 7.25372C18.1462 6.91372 15.854 6.91372 13.6001 7.25372C13.4018 6.77206 13.1043 6.17706 12.8351 5.70956C12.8209 5.68122 12.7784 5.66706 12.7359 5.66706C10.6109 6.03539 8.58508 6.67289 6.68675 7.55122C6.67258 7.55122 6.65842 7.56539 6.64425 7.57956C2.79092 13.3454 1.72842 18.9554 2.25258 24.5087C2.25258 24.5371 2.26675 24.5654 2.29508 24.5796C4.84508 26.4496 7.29592 27.5829 9.71842 28.3337C9.76092 28.3479 9.80342 28.3337 9.81758 28.3054C10.3843 27.5262 10.8943 26.7046 11.3334 25.8404C11.3618 25.7837 11.3334 25.7271 11.2768 25.7129C10.4693 25.4012 9.70425 25.0329 8.95342 24.6079C8.89675 24.5796 8.89675 24.4946 8.93925 24.4521C9.09508 24.3387 9.25092 24.2112 9.40675 24.0979C9.43508 24.0696 9.47758 24.0696 9.50592 24.0837C14.3793 26.3079 19.6351 26.3079 24.4518 24.0837C24.4801 24.0696 24.5226 24.0696 24.5509 24.0979C24.7068 24.2254 24.8626 24.3387 25.0184 24.4662C25.0751 24.5087 25.0751 24.5937 25.0042 24.6221C24.2676 25.0612 23.4884 25.4154 22.6809 25.7271C22.6243 25.7412 22.6101 25.8121 22.6243 25.8546C23.0776 26.7187 23.5876 27.5404 24.1401 28.3196C24.1826 28.3337 24.2251 28.3479 24.2676 28.3337C26.7042 27.5829 29.1551 26.4496 31.7051 24.5796C31.7334 24.5654 31.7476 24.5371 31.7476 24.5087C32.3709 18.0912 30.7134 12.5237 27.3559 7.57956C27.3417 7.56539 27.3276 7.55122 27.2993 7.55122V7.55122ZM12.0701 21.1229C10.6109 21.1229 9.39258 19.7771 9.39258 18.1196C9.39258 16.4621 10.5826 15.1162 12.0701 15.1162C13.5718 15.1162 14.7618 16.4762 14.7476 18.1196C14.7476 19.7771 13.5576 21.1229 12.0701 21.1229ZM21.9443 21.1229C20.4851 21.1229 19.2668 19.7771 19.2668 18.1196C19.2668 16.4621 20.4568 15.1162 21.9443 15.1162C23.4459 15.1162 24.6359 16.4762 24.6217 18.1196C24.6217 19.7771 23.4459 21.1229 21.9443 21.1229Z" fill="#00344A"/>
</svg>
