<svg width="34" height="34" viewBox="0 0 34 34" fill="none" xmlns="http://www.w3.org/2000/svg">
<path d="M23.5166 8.245C23.5166 8.245 24.2391 8.95333 23.5166 8.245C22.5482 7.13946 22.0146 5.7197 22.015 4.25H17.6375V21.8167C17.6037 22.7673 17.2024 23.6677 16.518 24.3283C15.8336 24.9889 14.9195 25.3582 13.9683 25.3583C11.9566 25.3583 10.285 23.715 10.285 21.675C10.285 19.2383 12.6366 17.4108 15.0591 18.1617V13.685C10.1716 13.0333 5.89331 16.83 5.89331 21.675C5.89331 26.3925 9.80331 29.75 13.9541 29.75C18.4025 29.75 22.015 26.1375 22.015 21.675V12.7642C23.7901 14.039 25.9212 14.7229 28.1066 14.7192V10.3417C28.1066 10.3417 25.4433 10.4692 23.5166 8.245Z" fill="#00344A"/>
</svg>
