<svg width="28" height="28" viewBox="0 0 28 28" fill="none" xmlns="http://www.w3.org/2000/svg">
<path d="M14 21.3208L9.15833 24.2375C8.94444 24.3736 8.72083 24.4319 8.4875 24.4125C8.25416 24.393 8.05 24.3153 7.875 24.1792C7.7 24.0431 7.56389 23.8731 7.46666 23.6693C7.36944 23.4648 7.35 23.2361 7.40833 22.9833L8.69166 17.4708L4.40416 13.7667C4.20972 13.5917 4.08839 13.3922 4.04016 13.1682C3.99116 12.9449 4.00555 12.7264 4.08333 12.5125C4.16111 12.2986 4.27778 12.1236 4.43333 11.9875C4.58889 11.8514 4.80278 11.7639 5.075 11.725L10.7333 11.2292L12.9208 6.03749C13.0181 5.80416 13.1689 5.62916 13.3735 5.51249C13.5773 5.39583 13.7861 5.33749 14 5.33749C14.2139 5.33749 14.4231 5.39583 14.6277 5.51249C14.8314 5.62916 14.9819 5.80416 15.0792 6.03749L17.2667 11.2292L22.925 11.725C23.1972 11.7639 23.4111 11.8514 23.5667 11.9875C23.7222 12.1236 23.8389 12.2986 23.9167 12.5125C23.9944 12.7264 24.0092 12.9449 23.961 13.1682C23.912 13.3922 23.7903 13.5917 23.5958 13.7667L19.3083 17.4708L20.5917 22.9833C20.65 23.2361 20.6306 23.4648 20.5333 23.6693C20.4361 23.8731 20.3 24.0431 20.125 24.1792C19.95 24.3153 19.7458 24.393 19.5125 24.4125C19.2792 24.4319 19.0556 24.3736 18.8417 24.2375L14 21.3208Z" fill="#FFB800"/>
</svg>
