<svg width="24" height="24" viewBox="0 0 24 24" fill="none" xmlns="http://www.w3.org/2000/svg">
<path d="M6.69995 8.69999C6.88329 8.51665 7.11662 8.42499 7.39995 8.42499C7.68328 8.42499 7.91662 8.51665 8.09995 8.69999L12 12.6L15.9 8.69999C16.0833 8.51665 16.3166 8.42499 16.6 8.42499C16.8833 8.42499 17.1166 8.51665 17.3 8.69999C17.4833 8.88332 17.575 9.11665 17.575 9.39999C17.575 9.68332 17.4833 9.91665 17.3 10.1L12.7 14.7C12.6 14.8 12.4916 14.871 12.375 14.913C12.2583 14.9543 12.1333 14.975 12 14.975C11.8666 14.975 11.7416 14.9543 11.625 14.913C11.5083 14.871 11.4 14.8 11.3 14.7L6.69995 10.1C6.51662 9.91665 6.42495 9.68332 6.42495 9.39999C6.42495 9.11665 6.51662 8.88332 6.69995 8.69999Z" fill="#00344A"/>
</svg>
