<svg width="35" height="35" viewBox="0 0 35 35" fill="none" xmlns="http://www.w3.org/2000/svg">
<path d="M32.7542 8.74967C31.6313 9.26009 30.4208 9.59551 29.1667 9.75592C30.45 8.98301 31.4417 7.75801 31.9084 6.28509C30.6979 7.01426 29.3563 7.52467 27.9417 7.81634C26.7896 6.56217 25.1709 5.83301 23.3334 5.83301C19.9063 5.83301 17.1063 8.63301 17.1063 12.0893C17.1063 12.5851 17.1646 13.0663 17.2667 13.5184C12.075 13.2559 7.4521 10.7622 4.37502 6.98509C3.83543 7.90384 3.52918 8.98301 3.52918 10.1205C3.52918 12.2934 4.62293 14.2184 6.3146 15.3122C5.27918 15.3122 4.31668 15.0205 3.47085 14.583V14.6268C3.47085 17.6601 5.62918 20.1976 8.48752 20.7663C7.56983 21.0175 6.60641 21.0524 5.67293 20.8684C6.06903 22.1116 6.84476 23.1994 7.89108 23.9789C8.93741 24.7585 10.2017 25.1905 11.5063 25.2143C9.29489 26.9649 6.55376 27.9112 3.73335 27.8976C3.23752 27.8976 2.74168 27.8684 2.24585 27.8101C5.01668 29.5893 8.31252 30.6247 11.8417 30.6247C23.3334 30.6247 29.6479 21.0872 29.6479 12.8184C29.6479 12.5413 29.6479 12.2788 29.6333 12.0018C30.8583 11.1268 31.9083 10.0184 32.7542 8.74967V8.74967Z" fill="#00344A"/>
</svg>
