<svg width="34" height="34" viewBox="0 0 34 34" fill="none" xmlns="http://www.w3.org/2000/svg">
<path d="M31.118 9.26993C30.9959 8.78028 30.7569 8.32753 30.4215 7.95049C30.0861 7.57345 29.6643 7.28336 29.1922 7.10508C24.65 5.35196 17.3984 5.36524 17 5.36524C16.6016 5.36524 9.35 5.35196 4.80781 7.10508C4.33572 7.28336 3.91389 7.57345 3.57849 7.95049C3.24308 8.32753 3.0041 8.78028 2.88203 9.26993C2.53672 10.5848 2.125 13.002 2.125 16.9996C2.125 20.9973 2.53672 23.4145 2.88203 24.7293C3.0041 25.2189 3.24308 25.6717 3.57849 26.0487C3.91389 26.4258 4.33572 26.7159 4.80781 26.8941C9.16406 28.5809 15.9906 28.634 16.907 28.634H17.093C18.0094 28.634 24.8359 28.5809 29.1922 26.8941C29.6643 26.7159 30.0861 26.4258 30.4215 26.0487C30.7569 25.6717 30.9959 25.2189 31.118 24.7293C31.4633 23.4145 31.875 20.9973 31.875 16.9996C31.875 13.002 31.4633 10.5848 31.118 9.26993V9.26993ZM21.5422 17.4379L15.1672 21.6879C15.0826 21.7501 14.98 21.7828 14.875 21.7809C14.787 21.7776 14.7009 21.7549 14.6227 21.7145C14.5378 21.6703 14.4668 21.6035 14.4175 21.5214C14.3683 21.4394 14.3428 21.3453 14.3438 21.2496V12.7496C14.3428 12.6539 14.3683 12.5598 14.4175 12.4778C14.4668 12.3957 14.5378 12.3289 14.6227 12.2848C14.7074 12.2396 14.8027 12.2182 14.8986 12.2229C14.9945 12.2276 15.0873 12.2581 15.1672 12.3113L21.5422 16.5613C21.6163 16.608 21.6773 16.6727 21.7196 16.7493C21.7619 16.8259 21.7841 16.9121 21.7841 16.9996C21.7841 17.0872 21.7619 17.1733 21.7196 17.2499C21.6773 17.3266 21.6163 17.3912 21.5422 17.4379Z" fill="#00344A"/>
</svg>
